<?xml version="1.0" encoding="utf-8"?>
<!-- Generator: Adobe Illustrator 26.0.1, SVG Export Plug-In . SVG Version: 6.00 Build 0)  -->
<svg version="1.0" id="Layer_1" xmlns="http://www.w3.org/2000/svg" xmlns:xlink="http://www.w3.org/1999/xlink" x="0px" y="0px"
	 viewBox="0 0 612 590" style="enable-background:new 0 0 612 590;" xml:space="preserve">
<style type="text/css">
	.st0{opacity:0.72;fill:none;stroke:#000000;stroke-width:5;stroke-miterlimit:10;enable-background:new    ;}
	.st1{fill:#39B54A;}
	.st2{fill:#006838;}
	.st3{fill:#FFF200;}
	.st4{fill:url(#SVGID_1_);stroke:#000000;stroke-width:2;stroke-miterlimit:10;}
	.st5{fill:#F1F2F2;stroke:#000000;stroke-width:2;stroke-miterlimit:10;}
	.st6{fill:#21409A;}
	.st7{font-family:'MyriadPro-BoldCond';}
	.st8{font-size:65px;}
	.st9{fill:#F26522;}
	.st10{opacity:0.75;fill:#FFFFFF;}
	.st11{opacity:0.4;fill:#FFFFFF;}
	.st12{opacity:0.25;fill:#FFFFFF;}
	.st13{opacity:0.82;}
</style>
<g id="Layer_2_00000178176324055017556960000011783151598272550557_">
	<ellipse class="st0" cx="308.1" cy="295" rx="265.2" ry="272.7"/>
</g>
<g id="Layer_3">
	<path class="st1" d="M-17.1,56.5"/>
	<g>
		<g>
			<path class="st1" d="M426.4,453c0,0,8.1,31.3-8.7,26.3C398.6,473.7,412.7,462.2,426.4,453z"/>
			<path class="st2" d="M425.6,456.9c0,0,5.6,21.8-9.9,20.1L425.6,456.9z"/>
		</g>
		<g>
			<path class="st1" d="M445.2,440c0,0,9.1,29-4.9,28.2C424.4,467.4,434.9,452.5,445.2,440z"/>
			<path class="st2" d="M444.8,444.1c0,0,6.4,20.2-6.3,22.4L444.8,444.1z"/>
		</g>
		<g>
			<path class="st1" d="M465.5,429.4c0,0,12.5,29.8-4.9,27.3C440.9,453.8,453.2,440.4,465.5,429.4z"/>
			<path class="st2" d="M465.2,433.3c0,0,8.7,20.8-6.9,21.3L465.2,433.3z"/>
		</g>
		<g>
			<path class="st1" d="M476.9,408.3c0,0,24,21.6,7.2,26.8C465.1,440.8,470.6,423.5,476.9,408.3z"/>
			<path class="st2" d="M478.3,412c0,0,16.7,15.1,2.9,22.2L478.3,412z"/>
		</g>
		<g>
			<path class="st1" d="M489.5,384.5c0,0,21.3,24.3,4,27.4C473.9,415.5,481.4,398.9,489.5,384.5z"/>
			<path class="st2" d="M490.5,388.4c0,0,14.8,17,0.2,22.4L490.5,388.4z"/>
		</g>
		<g>
			<path class="st1" d="M498.6,361.1c0,0,28,16.1,12.7,24.6C493.9,395.4,495.6,377.3,498.6,361.1z"/>
			<path class="st2" d="M500.8,364.4c0,0,19.5,11.2,7.5,21.1L500.8,364.4z"/>
		</g>
		<g>
			<path class="st1" d="M438.3,490.4c0,0-23,10.3-21.5-3.2C418.6,471.8,429.4,481.1,438.3,490.4z"/>
			<path class="st2" d="M435.2,490.3c0,0-16,7.2-16.9-4.9L435.2,490.3z"/>
		</g>
		<g>
			<path class="st1" d="M463.2,480.6c0,0-23.1,10.2-21.5-3.3C443.6,461.9,454.3,471.2,463.2,480.6z"/>
			<path class="st2" d="M460.1,480.4c0,0-16.1,7.1-16.9-5L460.1,480.4z"/>
		</g>
		<g>
			<path class="st1" d="M485,462.7c0,0-20.9,14.1-21.7,0.5C462.4,447.7,474.6,455.1,485,462.7z"/>
			<path class="st2" d="M481.9,463.1c0,0-14.6,9.8-17.5-2L481.9,463.1z"/>
		</g>
		<g>
			<path class="st1" d="M502.4,432.5c0,0-9.6,23.3-17.8,12.4C475.4,432.6,489.6,431.9,502.4,432.5z"/>
			<path class="st2" d="M500.1,434.6c0,0-6.7,16.3-15.6,8L500.1,434.6z"/>
		</g>
		<g>
			<path class="st1" d="M513.4,408.6c0,0-12.4,22-19.2,10.1C486.5,405.3,500.7,406.4,513.4,408.6z"/>
			<path class="st2" d="M510.9,410.3c0,0-8.7,15.3-16.5,6L510.9,410.3z"/>
		</g>
		<g>
			<path class="st1" d="M531.9,382.5c0,0-10.8,22.8-18.4,11.5C504.8,381.1,519,381.2,531.9,382.5z"/>
			<path class="st2" d="M529.4,384.4c0,0-7.5,15.9-16,7.2L529.4,384.4z"/>
		</g>
		<g>
			<path class="st1" d="M546.6,356.1c0,0-14.3,20.8-20,8.4C520.1,350.5,534.2,352.8,546.6,356.1z"/>
			<path class="st2" d="M543.9,357.6c0,0-10,14.5-17,4.6L543.9,357.6z"/>
		</g>
		<g>
			<path class="st1" d="M549,316.3c0,0-5.5,24.6-15.4,15.3C522.3,321,536.2,317.9,549,316.3z"/>
			<path class="st2" d="M547,318.7c0,0-3.8,17.2-14,10.6L547,318.7z"/>
		</g>
		<g>
			<path class="st1" d="M506.7,336.4c0,0,27.3,12.9,13.8,22.1C505.3,368.8,505.3,351.8,506.7,336.4z"/>
			<path class="st2" d="M509,339.3c0,0,19,9,8.7,19.2L509,339.3z"/>
		</g>
		<g>
			<path class="st1" d="M512.9,306.1c0,0,27.3,12.9,13.8,22.1C511.5,338.5,511.5,321.4,512.9,306.1z"/>
			<path class="st2" d="M515.2,309c0,0,19,9,8.7,19.2L515.2,309z"/>
		</g>
		<g>
			<path class="st1" d="M531,282.2c0,0,16.3,19.2,2.9,21.5C518.7,306.3,524.6,293.4,531,282.2z"/>
			<path class="st2" d="M531.8,285.2c0,0,11.4,13.4,0,17.6V285.2z"/>
		</g>
		<g>
			<path class="st1" d="M531.5,301.6c0,0,9.2,135.6-130.6,193.7l-6.6-6C394.3,489.3,515.7,457.7,531.5,301.6z"/>
			<path class="st2" d="M528.4,328.5c0,0,2.5,122.8-125.3,169.1l-5.7-5.7C397.3,491.9,507.6,468.7,528.4,328.5z"/>
		</g>
	</g>
	<g>
		<g>
			<path class="st1" d="M191.7,454.9c0,0-8.1,31.3,8.7,26.3C219.5,475.6,205.4,464.1,191.7,454.9z"/>
			<path class="st2" d="M192.5,458.8c0,0-5.6,21.8,9.9,20.1L192.5,458.8z"/>
		</g>
		<g>
			<path class="st1" d="M172.9,441.9c0,0-9.1,29,4.9,28.2C193.7,469.2,183.2,454.4,172.9,441.9z"/>
			<path class="st2" d="M173.2,445.9c0,0-6.4,20.2,6.3,22.4L173.2,445.9z"/>
		</g>
		<g>
			<path class="st1" d="M152.6,431.2c0,0-12.4,29.8,4.9,27.3C177.1,455.6,164.8,442.3,152.6,431.2z"/>
			<path class="st2" d="M152.9,435.2c0,0-8.7,20.8,6.9,21.3L152.9,435.2z"/>
		</g>
		<g>
			<path class="st1" d="M141.2,410.1c0,0-24,21.6-7.2,26.8C152.9,442.7,147.5,425.3,141.2,410.1z"/>
			<path class="st2" d="M139.7,413.8c0,0-16.7,15.1-2.9,22.2L139.7,413.8z"/>
		</g>
		<g>
			<path class="st1" d="M128.6,386.4c0,0-21.3,24.3-4,27.4C144.1,417.3,136.7,400.8,128.6,386.4z"/>
			<path class="st2" d="M127.6,390.2c0,0-14.8,17-0.2,22.4L127.6,390.2z"/>
		</g>
		<g>
			<path class="st1" d="M119.5,363c0,0-28,16.1-12.7,24.6C124.2,397.3,122.5,379.2,119.5,363z"/>
			<path class="st2" d="M117.3,366.3c0,0-19.5,11.2-7.5,21.1L117.3,366.3z"/>
		</g>
		<g>
			<path class="st1" d="M179.8,492.2c0,0,23,10.3,21.5-3.2C199.4,473.6,188.7,483,179.8,492.2z"/>
			<path class="st2" d="M182.8,492.1c0,0,16.1,7.2,16.9-4.9L182.8,492.1z"/>
		</g>
		<g>
			<path class="st1" d="M154.9,482.4c0,0,23.1,10.2,21.5-3.3C174.5,463.8,163.8,473.1,154.9,482.4z"/>
			<path class="st2" d="M157.9,482.3c0,0,16.1,7.1,16.9-5L157.9,482.3z"/>
		</g>
		<g>
			<path class="st1" d="M133.1,464.5c0,0,20.9,14.1,21.7,0.5C155.7,449.6,143.5,456.9,133.1,464.5z"/>
			<path class="st2" d="M136.2,464.9c0,0,14.6,9.8,17.5-2L136.2,464.9z"/>
		</g>
		<g>
			<path class="st1" d="M115.6,434.4c0,0,9.6,23.3,17.8,12.4C142.7,434.4,128.5,433.8,115.6,434.4z"/>
			<path class="st2" d="M118,436.4c0,0,6.7,16.3,15.6,8L118,436.4z"/>
		</g>
		<g>
			<path class="st1" d="M104.7,410.5c0,0,12.4,22,19.2,10.1C131.5,407.1,117.3,408.3,104.7,410.5z"/>
			<path class="st2" d="M107.2,412.2c0,0,8.7,15.3,16.5,6L107.2,412.2z"/>
		</g>
		<g>
			<path class="st1" d="M86.2,384.3c0,0,10.8,22.8,18.4,11.5C113.3,383,99,383.1,86.2,384.3z"/>
			<path class="st2" d="M88.6,386.2c0,0,7.5,15.9,16,7.2L88.6,386.2z"/>
		</g>
		<g>
			<path class="st1" d="M71.5,358c0,0,14.3,20.8,20,8.4C97.9,352.3,83.9,354.7,71.5,358z"/>
			<path class="st2" d="M74.2,359.5c0,0,10,14.5,17,4.6L74.2,359.5z"/>
		</g>
		<g>
			<path class="st1" d="M69.1,318.1c0,0,5.5,24.6,15.4,15.3C95.8,322.8,81.9,319.8,69.1,318.1z"/>
			<path class="st2" d="M71,320.5c0,0,3.8,17.2,14,10.6L71,320.5z"/>
		</g>
		<g>
			<path class="st1" d="M111.3,338.3c0,0-27.3,12.9-13.8,22.1C112.8,370.7,112.7,353.6,111.3,338.3z"/>
			<path class="st2" d="M109,341.2c0,0-19,9-8.7,19.2L109,341.2z"/>
		</g>
		<g>
			<path class="st1" d="M105.1,307.9c0,0-27.3,12.9-13.8,22.1C106.6,340.3,106.5,323.3,105.1,307.9z"/>
			<path class="st2" d="M102.8,310.8c0,0-19,9-8.7,19.2L102.8,310.8z"/>
		</g>
		<g>
			<path class="st1" d="M87.1,284.1c0,0-16.3,19.2-2.9,21.5C99.4,308.2,93.5,295.2,87.1,284.1z"/>
			<path class="st2" d="M86.3,287.1c0,0-11.4,13.4,0,17.6V287.1z"/>
		</g>
		<g>
			<path class="st1" d="M86.6,303.4c0,0-9.2,135.6,130.6,193.7l6.6-6C223.8,491.1,102.3,459.5,86.6,303.4z"/>
			<path class="st2" d="M89.7,330.4c0,0-2.5,122.8,125.3,169.1l5.7-5.7C220.7,493.8,110.4,470.6,89.7,330.4z"/>
		</g>
	</g>
</g>
<g id="Layer_4">
	<path class="st3" d="M458.3,223.2l-20-24.8l-42.7,29.1c-4.9-7.2-10.8-13.8-17.6-19.4l30.4-47L378.9,145L345,190.5
		c-4.7-1.4-9.6-2.5-14.6-3.2v-55.9h-29.8V186l-0.5,1.7c-7,1.2-13.8,3.1-20.2,5.7l-31.5-44.6l-24.7,17.4l27.9,44.9
		c-6.7,6.1-12.4,13.1-16.9,20.8l-43.2-29.7l-16.7,24.8l48.5,39.1c-0.3,3.1-0.5,6.2-0.5,9.3c0,49.2,42,89.1,93.8,89.1
		s93.8-39.9,93.8-89.1c0-5.4-0.5-10.7-1.5-15.9L458.3,223.2z"/>
</g>
<g id="Layer_5">
	
		<linearGradient id="SVGID_1_" gradientUnits="userSpaceOnUse" x1="309.41" y1="169.77" x2="309.41" y2="356.9566" gradientTransform="matrix(1 0 0 -1 0 592)">
		<stop  offset="5.586592e-03" style="stop-color:#C78C2E"/>
		<stop  offset="1" style="stop-color:#F5DF80"/>
	</linearGradient>
	<path class="st4" d="M196.9,247.9c0,0,85.2-29.6,112.5,7.6l7.1-2.5c1-26.1,91.9-16.1,91.9-16.1l26.8,16.1
		c-6.9,37.2,17.2,161.9,17.2,161.9c-12.1,9.2-109.6-0.5-114.6-1.9s-9.9,9.2-9.9,9.2c-11.2-4.6-34.8-1-34.8-1
		c-1.2-10.6-13.7-13.9-13.7-13.9c-86.9,18.9-113.2,0-113.2,0C176.1,401.4,196.9,247.9,196.9,247.9"/>
</g>
<g id="Layer_6">
	<path class="st5" d="M316.6,253c-17.6-27.3,91.9-16.1,91.9-16.1s1.5,65.8,12.7,124.1s-4.4,40.4-4.4,40.4
		c-24.1,16.8-45.4-5.6-75.2-4.3c-29.8,1.3-35.6,10.1-35.6,10.1s-16.5-15.2-31.4-8.9s-93.1,9.8-84.1-2.4
		c9-12.1,30.2-154.6,30.2-154.6s69-16.8,88.7,14.1L316.6,253z"/>
</g>
<g id="Layer_7">
	<g>
		<g>
			<path d="M227.1,278.9l0.3,1.2c-0.9,0.9-1.9,2.6-2.1,4.7l0.1-2.3l1.2,1.4c0.6,0.7,0.7,1.4,0.7,2.3c0,1.4-0.7,2.3-1.4,2.3
				c-0.5,0-0.9-0.4-1.2-0.8c-0.3-0.8-0.4-1.7-0.4-2.6C224.2,282.4,225.4,280.1,227.1,278.9z M231.1,278.9l0.3,1.2
				c-0.9,0.9-1.9,2.6-2.1,4.7l0.1-2.3l1.2,1.4c0.6,0.7,0.7,1.4,0.7,2.3c0,1.4-0.7,2.3-1.4,2.3c-0.5,0-0.9-0.4-1.2-0.8
				c-0.3-0.8-0.4-1.7-0.4-2.6C228.2,282.4,229.4,280.1,231.1,278.9z"/>
			<path d="M233,283.1l1.3-1.7l-0.5,5.7h-1.5l0.1-5.7h10.9l0.1,5.7h-1.5l-0.5-5.7l1.3,1.7H233z M238.1,299.5l2.8,0.5v1.7h-6.3v-1.7
				l2.7-0.5H238.1z M236.2,290.9c0-3.2,0-6.4-0.1-9.6h3.2c-0.1,3.1-0.1,6.3-0.1,9.6v1.1c0,3.2,0,6.4,0.1,9.6h-3.2
				c0.1-3.1,0.1-6.3,0.1-9.6V290.9z"/>
			<path d="M245.3,282.2l-1.1-0.3v-1.3l3.8-1.4l0.3,0.3l-0.1,4.3v6.1l0.1,0.4v4.8c0,1.9,0,5.1,0.1,6.5h-3.1c0-1.4,0.1-4.6,0.1-6.5
				L245.3,282.2L245.3,282.2z M249.2,300.1v1.4h-4.9v-1.4l1.7-0.6h1.4L249.2,300.1z M253.9,291.5v3.6c0,2,0,5.1,0.1,6.5h-3.1
				c0-1.4,0.1-4.5,0.1-6.5v-3.2c0-2-0.2-2.7-1-2.7c-0.7,0-1.5,1-2.2,2.5H247v-2.2h1.2l-0.7,0.9c1.3-3.1,2.3-4.1,3.6-4.1
				C252.8,286.2,253.9,288,253.9,291.5z M253,299.5l1.8,0.6v1.4h-4.9v-1.4l1.7-0.6H253z"/>
			<path d="M264.5,292.7c0,0.7,0,1.1-0.1,1.7h-7.2v-1.6h3.5c0.9,0,1.1-0.5,1.1-1.9c0-2-0.6-3-1.2-3c-0.8,0-1.5,1.4-1.5,5.9
				c0,3.8,1.1,5.5,2.5,5.5c1,0,1.7-0.7,2.2-1.7l0.6,1c-0.8,2.4-2.1,3.6-3.9,3.6c-2.7,0-4.6-2.9-4.6-7.9c0-5.1,2.4-7.9,4.8-7.9
				C263.1,286.2,264.5,289,264.5,292.7z"/>
			<path d="M270.9,288.8h-1.2V287l2.2-0.5l-1,0.9c0.2-3.5,0.8-5.3,1.6-6.5c1-1.5,2-2,3.1-2c1,0,2,0.5,2.2,2.2c0,1.2-0.5,2-1.3,2
				c-0.6,0-1.1-0.6-1.7-2.2l-0.5-1l1.8-0.7l0.2,0.9c-0.1-0.2-0.4-0.4-0.6-0.4c-0.6,0-1.1,0.9-1.4,1.5c-0.5,1.5-0.6,3.6-0.5,7v6.9
				c0,2.2,0,4.3,0.1,6.5h-3.1c0-2.2,0.1-4.3,0.1-6.5L270.9,288.8L270.9,288.8z M275.2,300.1v1.4h-5.5v-1.4l1.8-0.6h1.9L275.2,300.1z
				 M275.7,286.7v2.1h-3.4v-2.1H275.7z"/>
			<path d="M285.2,292.7c0,0.7,0,1.1-0.1,1.7h-7.2v-1.6h3.5c0.9,0,1.1-0.5,1.1-1.9c0-2-0.6-3-1.2-3c-0.8,0-1.5,1.4-1.5,5.9
				c0,3.8,1.1,5.5,2.5,5.5c1,0,1.7-0.7,2.2-1.7l0.6,1c-0.8,2.4-2.1,3.6-3.9,3.6c-2.7,0-4.6-2.9-4.6-7.9c0-5.1,2.4-7.9,4.8-7.9
				C283.8,286.2,285.2,289,285.2,292.7z"/>
			<path d="M290,293c0.8-0.4,2.1-1,3-1.3v1.3c-0.9,0.4-1.9,0.8-2.4,1.2c-0.8,0.6-1.4,1.6-1.4,3.1c0,1.5,0.5,2.3,1.1,2.3
				c0.4,0,0.6-0.2,1.2-1l0.7-0.9l0.2,0.5l-0.8,1.4c-0.9,1.6-1.5,2.5-2.8,2.5c-1.4,0-2.4-1.4-2.4-3.9
				C286.5,295.9,287.2,294.4,290,293z M291.4,299.1v-7.7c0-2.7-0.3-3.5-1.5-3.5c-0.5,0-0.9,0.1-1.7,0.4l1.3-1.2l-0.1,2.1
				c0,2-0.6,2.9-1.4,2.9c-0.7,0-1.1-0.5-1.2-1.5c0.1-2.6,1.6-4.3,4.2-4.3c2.4,0,3.3,1.7,3.3,5.8v6.9c0,0.6,0.1,0.9,0.4,0.9
				c0.2,0,0.3-0.2,0.6-0.7l0.5,0.5c-0.4,1.7-1.1,2.3-2.2,2.3C292.3,302,291.6,300.9,291.4,299.1z"/>
			<path d="M297.4,295.1v-1.8c0-1.7,0-2.3-0.1-3.5l-1.1-0.3v-1.2l3.6-2l0.3,0.3l0.2,3.8v4.8c0,1.9,0,5.1,0.1,6.5h-3.1
				C297.4,300.2,297.4,297,297.4,295.1z M296.4,300.1l1.8-0.6h2l1.8,0.6v1.4h-5.5L296.4,300.1L296.4,300.1z M299,291h1.4l-0.2,0.8
				c0.3-3.8,1.6-5.7,2.7-5.7c0.8,0,1.5,0.7,1.6,2.3c0,1.6-0.6,2.5-1.3,2.5c-0.6,0-1-0.5-1.4-1.4l-0.5-1.2l0.8,0.5
				c-0.7,0.8-1.3,2.4-1.6,4.3l-1.4-0.2L299,291L299,291z"/>
			<path d="M309.2,294.1c0-4.7,2-7.9,4.7-7.9c2.6,0,4.7,3,4.7,7.9s-1.8,8-4.7,8C311.1,302,309.2,298.8,309.2,294.1z M315.5,294.1
				c0-4.4-0.5-6.3-1.6-6.3c-1,0-1.6,1.9-1.6,6.3c0,4.4,0.5,6.3,1.6,6.3C315,300.4,315.5,298.5,315.5,294.1z"/>
			<path d="M320.9,288.8h-1.2V287l2.2-0.5l-1,0.9c0.2-3.5,0.8-5.3,1.6-6.5c1-1.5,2-2,3.1-2c1,0,2,0.5,2.2,2.2c0,1.2-0.5,2-1.3,2
				c-0.6,0-1.1-0.6-1.7-2.2l-0.5-1l1.8-0.7l0.2,0.9c-0.1-0.2-0.4-0.4-0.6-0.4c-0.6,0-1.1,0.9-1.4,1.5c-0.5,1.5-0.6,3.6-0.5,7v6.9
				c0,2.2,0,4.3,0,6.5h-3.1c0-2.2,0.1-4.3,0.1-6.5L320.9,288.8L320.9,288.8z M325.3,300.1v1.4h-5.5v-1.4l1.8-0.6h1.9L325.3,300.1z
				 M325.8,286.7v2.1h-3.4v-2.1H325.8z"/>
			<path d="M335.6,299.5c0.3,0,0.6-0.2,1-0.7l0.5,0.7c-0.5,1.6-1.4,2.5-2.7,2.5c-1.7,0-2.7-1.2-2.7-4.3c0-1.1,0-1.9,0-3.1v-5.9h-1.2
				v-1.8l2.2-0.5l-1.1,1.2l1.2-5.4h1.9l0,5.5v9.5C334.6,298.9,335,299.5,335.6,299.5z M336.6,286.7v2.1h-3.4v-2.1H336.6z"/>
			<path d="M338.6,282.2l-1.1-0.3v-1.3l3.8-1.4l0.3,0.3l-0.1,4.3v6.1l0,0.4v4.8c0,1.9,0,5.1,0.1,6.5h-3.1c0-1.4,0.1-4.6,0.1-6.5
				L338.6,282.2L338.6,282.2z M342.4,300.1v1.4h-4.9v-1.4l1.7-0.6h1.4L342.4,300.1z M347.1,291.5v3.6c0,2,0,5.1,0,6.5h-3.1
				c0-1.4,0.1-4.5,0.1-6.5v-3.2c0-2-0.2-2.7-1-2.7c-0.7,0-1.5,1-2.2,2.5h-0.7v-2.2h1.2l-0.7,0.9c1.3-3.1,2.3-4.1,3.6-4.1
				C346.1,286.2,347.1,288,347.1,291.5z M346.3,299.5l1.8,0.6v1.4h-4.9v-1.4l1.7-0.6H346.3z"/>
			<path d="M357.7,292.7c0,0.7,0,1.1-0.1,1.7h-7.2v-1.6h3.5c0.9,0,1.1-0.5,1.1-1.9c0-2-0.6-3-1.2-3c-0.8,0-1.5,1.4-1.5,5.9
				c0,3.8,1.1,5.5,2.5,5.5c1,0,1.7-0.7,2.2-1.7l0.6,1c-0.8,2.4-2.1,3.6-3.9,3.6c-2.7,0-4.6-2.9-4.6-7.9c0-5.1,2.4-7.9,4.8-7.9
				C356.4,286.2,357.7,289,357.7,292.7z"/>
			<path d="M363.1,283v-1.7h6.1v1.7l-2.7,0.5h-0.7L363.1,283z M366.1,299.5v2.1h-3v-1.7l2.7-0.5H366.1z M364.5,281.3h3.2
				c-0.1,3.1-0.1,6.3-0.1,9.6v1.6c0,2.7,0,5.9,0.1,9.1h-3.2c0.1-3.1,0.1-6.3,0.1-8.9v-1.8C364.5,287.7,364.5,284.5,364.5,281.3z
				 M372.9,295.5l-0.2,6h-6.6v-1.8h6l-1.4,1.8l0.7-6H372.9z"/>
			<path d="M373.9,294.1c0-4.7,2-7.9,4.7-7.9c2.6,0,4.7,3,4.7,7.9s-1.8,8-4.7,8C375.7,302,373.9,298.8,373.9,294.1z M380.2,294.1
				c0-4.4-0.5-6.3-1.6-6.3c-1,0-1.6,1.9-1.6,6.3c0,4.4,0.5,6.3,1.6,6.3C379.7,300.4,380.2,298.5,380.2,294.1z"/>
			<path d="M385.5,295.1v-1.8c0-1.7,0-2.3-0.1-3.5l-1.1-0.3v-1.2l3.6-2l0.3,0.3l0.2,3.8v4.8c0,1.9,0,5.1,0,6.5h-3.1
				C385.5,300.2,385.5,297,385.5,295.1z M384.5,300.1l1.8-0.6h2l1.8,0.6v1.4h-5.5L384.5,300.1L384.5,300.1z M387.1,291h1.4l-0.2,0.8
				c0.3-3.8,1.6-5.7,2.7-5.7c0.8,0,1.5,0.7,1.6,2.3c0,1.6-0.6,2.5-1.3,2.5c-0.6,0-1-0.5-1.4-1.4l-0.5-1.2l0.8,0.5
				c-0.7,0.8-1.3,2.4-1.6,4.3l-1.4-0.2L387.1,291L387.1,291z"/>
			<path d="M398.3,299.4c0.9,0,1.5-1.1,2.1-2.6l0.2,0.5c-0.9,3.3-2,4.8-3.7,4.8c-2.1,0-3.7-2.8-3.7-7.8c0-5,2-8.1,4.1-8.1
				c1.6,0,2.4,1.5,3.2,4.2l-0.2,0.6c-0.7-1.5-1.2-2.2-2-2.2c-1.1,0-2,1.7-2,5.4C396.4,297.6,397.2,299.4,398.3,299.4z M403.3,300.1
				v1.4l-3.6,0.4l-0.2-2.8V289l0.1-0.3v-6.4l-1.3-0.3v-1.3l3.9-1.4l0.3,0.3l-0.1,4.3v17.8l-1.3-2.2L403.3,300.1z"/>
			<path d="M241.8,338.6c0-1.4,0.1-4.6,0.1-6.5v-1.5c0-1.7,0-2.6-0.1-3.9l-1.1-0.3v-1.2l3.9-2l0.3,0.3l-0.1,4.5v4.1
				c0,1.9,0,5.1,0.1,6.5L241.8,338.6L241.8,338.6z M245.7,337.2v1.4h-4.9v-1.4l1.7-0.6h1.4L245.7,337.2z M241.7,318.5
				c0-1.4,0.7-2.5,1.6-2.5s1.6,1,1.6,2.5c0,1.4-0.7,2.5-1.6,2.5S241.7,319.9,241.7,318.5z"/>
			<path d="M246.8,337.6l0.1-3.8h1.5l0.4,4.1l-1-0.6v-1.3c0.8,0.8,1.5,1.2,2.3,1.2c1.1,0,1.6-0.6,1.6-1.8c0-1-0.3-1.6-1.6-2.2
				l-1-0.5c-1.4-0.7-2.2-2.3-2.2-4.6c0-2.8,1.4-5,3.9-5c1.1,0,2,0.4,2.9,1.2l-0.1,3.4H252l-0.5-3.8l1,0.7v1.1c-0.7-0.7-1.1-1-1.9-1
				s-1.4,0.6-1.4,1.7c0,0.9,0.3,1.4,1.6,2.1l0.9,0.4c1.8,0.9,2.5,2.5,2.5,4.8c0,3.3-1.6,5.1-4.2,5.1
				C248.8,339.1,247.8,338.6,246.8,337.6z"/>
			<path d="M264.2,336.5c0.3,0,0.6-0.2,1-0.7l0.5,0.7c-0.5,1.6-1.4,2.5-2.7,2.5c-1.7,0-2.7-1.2-2.7-4.3c0-1.1,0-1.9,0-3.1v-5.9h-1.2
				v-1.8l2.2-0.5l-1.1,1.2l1.2-5.4h1.9l0,5.5v9.5C263.2,335.9,263.6,336.5,264.2,336.5z M265.2,323.7v2.1h-3.4v-2.1H265.2z"/>
			<path d="M267.2,319.2l-1.1-0.3v-1.3l3.8-1.4l0.3,0.3l-0.1,4.3v6.1l0.1,0.4v4.8c0,1.9,0,5.1,0.1,6.5h-3.1c0-1.4,0.1-4.6,0.1-6.5
				L267.2,319.2L267.2,319.2z M271.1,337.2v1.4h-4.9v-1.4l1.7-0.6h1.4L271.1,337.2z M275.8,328.5v3.6c0,2,0,5.1,0.1,6.5h-3.1
				c0-1.4,0.1-4.5,0.1-6.5v-3.2c0-2-0.2-2.7-1-2.7c-0.7,0-1.5,1-2.2,2.5h-0.7v-2.2h1.2l-0.7,0.9c1.3-3.1,2.3-4.1,3.6-4.1
				C274.7,323.2,275.8,325,275.8,328.5z M274.9,336.5l1.8,0.6v1.4h-4.9v-1.4l1.7-0.6H274.9z"/>
			<path d="M286.4,329.7c0,0.7,0,1.1-0.1,1.7H279v-1.6h3.5c0.9,0,1.1-0.5,1.1-1.9c0-2-0.6-3-1.2-3c-0.8,0-1.5,1.4-1.5,5.9
				c0,3.8,1.1,5.5,2.5,5.5c1,0,1.7-0.7,2.2-1.7l0.6,1c-0.8,2.4-2.1,3.6-3.9,3.6c-2.7,0-4.6-2.9-4.6-7.9c0-5.1,2.4-7.9,4.8-7.9
				C285,323.2,286.4,326,286.4,329.7z"/>
			<path d="M291.7,320v-1.7h3v2.1h-0.3L291.7,320z M294.7,336.5v2.1h-3v-1.7l2.7-0.5H294.7z M293.2,328c0-3.2,0-6.5-0.1-9.7h3.2
				c-0.1,3.2-0.1,6.4-0.1,9.7v0.8c0,3.4,0,6.6,0.1,9.8h-3.2c0.1-3.2,0.1-6.4,0.1-9.7V328z M294.7,327.2h2c1.6,0,2.3-1.3,2.3-3.7
				c0-2.3-0.7-3.4-2.1-3.4h-2.2v-1.8h3c3.1,0,4.3,2,4.3,4.8c0,2.3-0.9,4.2-3.9,4.8v-0.3c3.3,0.3,4.6,2.3,4.6,5.3
				c0,2.6-1.1,5.7-5.7,5.7h-2.3v-1.8h2.1c1.7,0,2.7-1.4,2.7-4c0-2.8-0.9-4-2.7-4h-2.1V327.2z"/>
			<path d="M312.5,329.7c0,0.7,0,1.1-0.1,1.7h-7.2v-1.6h3.5c0.9,0,1.1-0.5,1.1-1.9c0-2-0.6-3-1.2-3c-0.8,0-1.5,1.4-1.5,5.9
				c0,3.8,1.1,5.5,2.5,5.5c1,0,1.7-0.7,2.2-1.7l0.6,1c-0.8,2.4-2.1,3.6-3.9,3.6c-2.7,0-4.6-2.9-4.6-7.9c0-5.1,2.4-7.9,4.8-7.9
				C311.1,323.2,312.5,326,312.5,329.7z"/>
			<path d="M320.5,341.4c0-0.9-0.4-1.8-1.4-1.8h-1.9c-0.8,0-1.5-0.1-2-0.5V339c-0.9-0.5-1.3-1.5-1.3-2.6c0-1.6,0.7-3,1.8-4.5
				l0.5,0.5c-0.3,0.6-0.4,1.1-0.4,1.9c0,0.7,0.3,1.2,1.1,1.2h2.2c2.8,0,3.8,1.8,3.8,4.5c0,3.1-1.9,5.8-5.4,5.8c-3.1,0-4-1.7-4-3.6
				c0-1.5,0.7-2.7,2.1-3.5l0.3,0.3c-0.4,0.9-0.5,1.4-0.5,2.4c0,1.8,0.8,2.6,2.5,2.6C319.5,343.8,320.5,342.8,320.5,341.4z
				 M317.7,323.2c2.6,0,3.9,2.1,3.9,5c0,2.8-1.2,4.9-3.9,4.9c-2.6,0-3.9-2.1-3.9-4.9C313.8,325.3,315,323.2,317.7,323.2z
				 M316.4,328.2c0,2.2,0.4,3.5,1.2,3.5c0.9,0,1.3-1.4,1.3-3.5c0-2.2-0.4-3.5-1.3-3.5C316.9,324.7,316.4,326,316.4,328.2z
				 M322.7,323.2l0.3,0.3v2.4h-2.6v-1L322.7,323.2z"/>
			<path d="M324.8,338.6c0-1.4,0.1-4.6,0.1-6.5v-1.5c0-1.7,0-2.6-0.1-3.9l-1.1-0.3v-1.2l3.9-2l0.3,0.3l0,4.5v4.1c0,1.9,0,5.1,0,6.5
				L324.8,338.6L324.8,338.6z M328.8,337.2v1.4h-4.9v-1.4l1.7-0.6h1.4L328.8,337.2z M324.8,318.5c0-1.4,0.7-2.5,1.6-2.5
				s1.6,1,1.6,2.5c0,1.4-0.7,2.5-1.6,2.5S324.8,319.9,324.8,318.5z"/>
			<path d="M330.8,338.6c0-1.4,0.1-4.6,0.1-6.5v-1.8c0-1.7,0-2.3-0.1-3.6l-1.1-0.3v-1.2l3.6-2l0.3,0.3l0.2,3.4v5.1
				c0,1.9,0,5.1,0,6.5L330.8,338.6L330.8,338.6z M334.7,337.2v1.4h-4.9v-1.4l1.7-0.6h1.4L334.7,337.2z M339.4,328.5v3.6
				c0,2,0,5.1,0,6.5h-3.1c0-1.4,0.1-4.5,0.1-6.5v-3.2c0-2-0.3-2.7-1-2.7c-0.7,0-1.5,0.8-2.3,2.3h-0.6v-2h1.2l-0.7,0.9
				c1.3-3.1,2.4-4.1,3.7-4.1C338.3,323.2,339.4,325,339.4,328.5z M338.5,336.5l1.8,0.6v1.4h-4.9v-1.4l1.7-0.6H338.5z"/>
			<path d="M342.4,338.6c0-1.4,0.1-4.6,0.1-6.5v-1.8c0-1.7,0-2.3-0.1-3.6l-1.1-0.3v-1.2l3.6-2l0.3,0.3l0.2,3.4v5.1
				c0,1.9,0,5.1,0,6.5L342.4,338.6L342.4,338.6z M346.2,337.2v1.4h-4.9v-1.4l1.7-0.6h1.4L346.2,337.2z M350.9,328.5v3.6
				c0,2,0,5.1,0,6.5h-3.1c0-1.4,0.1-4.5,0.1-6.5v-3.2c0-2-0.3-2.7-1-2.7c-0.7,0-1.5,0.8-2.3,2.3H344v-2h1.2l-0.7,0.9
				c1.3-3.1,2.4-4.1,3.7-4.1C349.9,323.2,350.9,325,350.9,328.5z M350.1,336.5l1.8,0.6v1.4H347v-1.4l1.7-0.6H350.1z"/>
			<path d="M353.9,338.6c0-1.4,0.1-4.6,0.1-6.5v-1.5c0-1.7,0-2.6-0.1-3.9l-1.1-0.3v-1.2l3.9-2l0.3,0.3l0,4.5v4.1c0,1.9,0,5.1,0,6.5
				L353.9,338.6L353.9,338.6z M357.9,337.2v1.4H353v-1.4l1.7-0.6h1.4L357.9,337.2z M353.9,318.5c0-1.4,0.7-2.5,1.6-2.5
				s1.6,1,1.6,2.5c0,1.4-0.7,2.5-1.6,2.5S353.9,319.9,353.9,318.5z"/>
			<path d="M359.9,338.6c0-1.4,0.1-4.6,0.1-6.5v-1.8c0-1.7,0-2.3-0.1-3.6l-1.1-0.3v-1.2l3.6-2l0.3,0.3l0.2,3.4v5.1
				c0,1.9,0,5.1,0,6.5L359.9,338.6L359.9,338.6z M363.8,337.2v1.4h-4.9v-1.4l1.7-0.6h1.4L363.8,337.2z M368.5,328.5v3.6
				c0,2,0,5.1,0,6.5h-3.1c0-1.4,0.1-4.5,0.1-6.5v-3.2c0-2-0.3-2.7-1-2.7c-0.7,0-1.5,0.8-2.3,2.3h-0.6v-2h1.2l-0.7,0.9
				c1.3-3.1,2.4-4.1,3.7-4.1C367.4,323.2,368.5,325,368.5,328.5z M367.6,336.5l1.8,0.6v1.4h-4.9v-1.4l1.7-0.6H367.6z"/>
			<path d="M377.3,341.4c0-0.9-0.4-1.8-1.4-1.8H374c-0.8,0-1.5-0.1-2-0.5V339c-0.9-0.5-1.3-1.5-1.3-2.6c0-1.6,0.7-3,1.8-4.5l0.5,0.5
				c-0.3,0.6-0.4,1.1-0.4,1.9c0,0.7,0.3,1.2,1.1,1.2h2.2c2.8,0,3.8,1.8,3.8,4.5c0,3.1-1.9,5.8-5.4,5.8c-3.1,0-4-1.7-4-3.6
				c0-1.5,0.7-2.7,2.1-3.5l0.3,0.3c-0.4,0.9-0.5,1.4-0.5,2.4c0,1.8,0.8,2.6,2.5,2.6C376.4,343.8,377.3,342.8,377.3,341.4z
				 M374.5,323.2c2.6,0,3.9,2.1,3.9,5c0,2.8-1.2,4.9-3.9,4.9c-2.6,0-3.9-2.1-3.9-4.9C370.6,325.3,371.9,323.2,374.5,323.2z
				 M373.3,328.2c0,2.2,0.4,3.5,1.2,3.5c0.9,0,1.3-1.4,1.3-3.5c0-2.2-0.4-3.5-1.3-3.5C373.7,324.7,373.3,326,373.3,328.2z
				 M379.5,323.2l0.3,0.3v2.4h-2.6v-1L379.5,323.2z"/>
			<path d="M249,368.1c0-4.7,2.1-7.9,4.7-7.9c2.6,0,4.7,3,4.7,7.9s-1.8,8-4.7,8C250.8,376.1,249,372.8,249,368.1z M255.2,368.2
				c0-4.4-0.5-6.3-1.6-6.3c-1.1,0-1.6,1.9-1.6,6.3c0,4.4,0.5,6.3,1.6,6.3C254.7,374.5,255.2,372.6,255.2,368.2z"/>
			<path d="M260.6,362.8h-1.2V361l2.2-0.5l-1,0.9c0.2-3.5,0.8-5.3,1.6-6.5c1-1.5,2-2,3.1-2c1,0,2,0.5,2.2,2.2c0,1.2-0.5,2-1.3,2
				c-0.6,0-1.1-0.6-1.7-2.2l-0.5-1l1.8-0.7l0.2,0.9c-0.1-0.2-0.4-0.4-0.6-0.4c-0.6,0-1.1,0.9-1.4,1.5c-0.5,1.5-0.6,3.6-0.5,7v6.9
				c0,2.2,0,4.3,0.1,6.5h-3.1c0-2.2,0.1-4.3,0.1-6.5L260.6,362.8L260.6,362.8z M265,374.2v1.4h-5.5v-1.4l1.8-0.6h1.9L265,374.2z
				 M265.5,360.7v2.1h-3.4v-2.1H265.5z"/>
			<path d="M270.6,357v-1.7h5.8v1.7l-2.6,0.5h-0.5L270.6,357z M273.8,373.5l2.4,0.5v1.7h-5.6v-1.7l2.7-0.5H273.8z M272,364.9
				c0-3.2,0-6.4-0.1-9.6h3.1c-0.1,3.1-0.1,6.3-0.1,9.6v1.3c0,3,0,6.2,0.1,9.4H272c0.1-3.1,0.1-6.3,0.1-9.6V364.9z M273.6,368.8
				l6.5-13.5h1.4l-7.9,15.6V368.8z M277.8,361.5l4.5,14.1h-3.4l-3-10.2L277.8,361.5z M277.5,374l2.5-0.5h0.4l2.4,0.5v1.7h-5.4
				L277.5,374L277.5,374z M277.9,357v-1.7h4.3v1.7l-2.1,0.5l-0.5,0L277.9,357z"/>
			<path d="M284.5,375.6c0-1.4,0.1-4.6,0.1-6.5v-1.8c0-1.7,0-2.3-0.1-3.6l-1.1-0.3v-1.2l3.6-2l0.3,0.3l0.2,3.4v5.1
				c0,1.9,0,5.1,0.1,6.5L284.5,375.6L284.5,375.6z M288.4,374.2v1.4h-4.9v-1.4l1.7-0.6h1.4L288.4,374.2z M293.1,365.5v3.6
				c0,2,0,5.1,0.1,6.5h-3.1c0-1.4,0.1-4.5,0.1-6.5v-3.2c0-2-0.3-2.7-1-2.7c-0.7,0-1.5,0.8-2.3,2.3h-0.6v-2h1.2l-0.7,0.9
				c1.3-3.1,2.4-4.1,3.7-4.1C292,360.2,293.1,362,293.1,365.5z M292.2,373.6l1.8,0.6v1.4h-4.9v-1.4l1.7-0.6H292.2z"/>
			<path d="M295.1,368.1c0-4.7,2-7.9,4.7-7.9c2.6,0,4.7,3,4.7,7.9s-1.8,8-4.7,8C296.9,376.1,295.1,372.8,295.1,368.1z M301.4,368.2
				c0-4.4-0.5-6.3-1.6-6.3c-1,0-1.6,1.9-1.6,6.3c0,4.4,0.5,6.3,1.6,6.3C300.9,374.5,301.4,372.6,301.4,368.2z"/>
			<path d="M306.9,362.6l-1.8-0.5v-1.4h4.9v1.4l-2.1,0.5H306.9z M314,360.7l2.1,10.8l-0.5-0.3l2-10.5h1.3l-3.2,15h-1.4
				c-1.6-6.8-2.2-9.8-2.5-12l0.8-0.2l-2.6,12.2h-1.4l-3.3-15h3l2,10.8l-0.4-0.3l2.1-10.5L314,360.7L314,360.7z M310.8,362.1v-1.4
				h4.5v1.4l-1.8,0.5h-0.8L310.8,362.1z M317.8,362.5l-1.5-0.4v-1.4h3.4v1.4l-1.5,0.4H317.8z"/>
			<path d="M324.2,353.2l0.3,0.3l-0.1,4.3v11.3c0,2.2,0,4.3,0.1,6.5h-3.1c0-2.2,0.1-4.3,0.1-6.5v-12.9l-1.1-0.3v-1.3L324.2,353.2z
				 M325.5,374.2v1.4h-5.1v-1.4l1.8-0.6h1.4L325.5,374.2z"/>
			<path d="M335.2,366.8c0,0.7,0,1.1-0.1,1.7h-7.2v-1.6h3.5c0.9,0,1.1-0.5,1.1-1.9c0-2-0.6-3-1.2-3c-0.8,0-1.5,1.4-1.5,5.9
				c0,3.8,1.1,5.5,2.5,5.5c1,0,1.7-0.7,2.2-1.7l0.6,1c-0.8,2.4-2.1,3.6-3.9,3.6c-2.7,0-4.6-2.9-4.6-7.9c0-5.1,2.4-7.9,4.8-7.9
				C333.8,360.2,335.2,363,335.2,366.8z"/>
			<path d="M341.4,373.4c0.9,0,1.5-1.1,2.1-2.6l0.2,0.5c-0.9,3.3-2,4.8-3.7,4.8c-2.1,0-3.7-2.8-3.7-7.8c0-5,2-8.1,4.1-8.1
				c1.6,0,2.4,1.5,3.2,4.2l-0.2,0.6c-0.7-1.5-1.2-2.2-2-2.2c-1.1,0-2,1.7-2,5.4C339.5,371.6,340.3,373.4,341.4,373.4z M346.4,374.2
				v1.4l-3.6,0.4l-0.2-2.7V363l0.1-0.3v-6.4l-1.3-0.3v-1.3l3.9-1.4l0.3,0.3l-0.1,4.3v17.8l-1.3-2.2L346.4,374.2z"/>
			<path d="M354.3,378.4c0-0.9-0.4-1.8-1.4-1.8H351c-0.8,0-1.5-0.1-2-0.5V376c-0.9-0.5-1.3-1.5-1.3-2.6c0-1.6,0.7-3,1.8-4.5l0.5,0.5
				c-0.3,0.6-0.4,1.1-0.4,1.9c0,0.7,0.3,1.2,1.1,1.2h2.2c2.8,0,3.8,1.8,3.8,4.5c0,3.1-1.9,5.8-5.4,5.8c-3.1,0-4-1.7-4-3.6
				c0-1.5,0.7-2.7,2.1-3.5l0.3,0.3c-0.4,0.9-0.5,1.4-0.5,2.4c0,1.8,0.8,2.6,2.5,2.6C353.4,380.8,354.3,379.8,354.3,378.4z
				 M351.5,360.2c2.6,0,3.9,2.1,3.9,5c0,2.8-1.2,4.9-3.9,4.9c-2.6,0-3.9-2.1-3.9-4.9C347.7,362.4,348.9,360.2,351.5,360.2z
				 M350.3,365.2c0,2.2,0.4,3.5,1.2,3.5c0.9,0,1.3-1.4,1.3-3.5c0-2.2-0.4-3.5-1.3-3.5C350.7,361.7,350.3,363,350.3,365.2z
				 M356.5,360.2l0.3,0.3v2.4h-2.6v-1L356.5,360.2z"/>
			<path d="M366.3,366.8c0,0.7,0,1.1-0.1,1.7H359v-1.6h3.5c0.9,0,1.1-0.5,1.1-1.9c0-2-0.6-3-1.2-3c-0.8,0-1.5,1.4-1.5,5.9
				c0,3.8,1.1,5.5,2.5,5.5c1,0,1.7-0.7,2.2-1.7l0.6,1c-0.8,2.4-2.1,3.6-3.9,3.6c-2.7,0-4.6-2.9-4.6-7.9c0-5.1,2.4-7.9,4.8-7.9
				C364.9,360.2,366.3,363,366.3,366.8z"/>
			<path d="M367.7,362.5l-0.3-1.2c0.9-0.9,1.9-2.6,2.1-4.7l-0.1,2.3l-1.2-1.4c-0.6-0.7-0.7-1.4-0.7-2.3c0-1.4,0.7-2.3,1.4-2.3
				c0.5,0,0.9,0.4,1.2,0.8c0.3,0.8,0.4,1.7,0.4,2.6C370.5,359,369.4,361.3,367.7,362.5z M371.6,362.5l-0.3-1.2
				c0.9-0.9,1.9-2.6,2.1-4.7l-0.1,2.3l-1.2-1.4c-0.6-0.7-0.7-1.4-0.7-2.3c0-1.4,0.7-2.3,1.4-2.3c0.5,0,0.9,0.4,1.2,0.8
				c0.3,0.8,0.4,1.7,0.4,2.6C374.5,359,373.3,361.3,371.6,362.5z"/>
		</g>
	</g>
	<text transform="matrix(1.1886 0 0 1 230.6894 520.3232)" class="st6 st7 st8">2000</text>
</g>
<g id="Layer_9">
	<path class="st9" d="M90.4,278.9c0.2-1.8,0.5-3.7,0.8-5.5"/>
	<path class="st9" d="M527.3,270.6c0.3,1.8,0.6,3.6,0.8,5.4"/>
	<g>
		<g>
			<path class="st9" d="M67.9,260.3l2.6-12.4l2,0.4l-0.6,5.6l-0.3,1.4l-1.7,5.3L67.9,260.3z M69.9,250.7c3.6,0.9,7.4,1.7,11.2,2.4
				L85,254c5.1,1.1,8.3,2.2,10.5,3.9c2.9,2.1,4.1,5.5,3.4,8.9c-0.4,2-1.5,3.5-3.3,4c-1.7-0.4-2.5-1.9-2.1-3.5c0.3-1.3,1.1-2.1,2.8-3
				l1.7-0.9l0.2,0.5l-0.2,0.3l-0.4-0.1c-0.9-1-2.8-1.7-5.8-2.3c-3.7-0.8-10.4-2-23.1-4.5L69.9,250.7z"/>
			<path class="st9" d="M72.2,242.1c-1.7-0.5-2.6-2.2-2.1-3.9s2.1-2.8,3.8-2.3c1.7,0.5,2.6,2.2,2.1,3.9S73.9,242.5,72.2,242.1z
				 M96.2,248.4c-1.6-0.5-5.4-1.6-7.7-2.2l-1.8-0.5c-2-0.5-3.2-0.8-4.7-1.1l-0.9,2.2l-1.4-0.4l-0.4-8.3l0.6-0.5l5.3,1.5l4.9,1.3
				c2.3,0.6,6.1,1.6,7.7,2L96.2,248.4z M96.6,240.1l1.7,0.5l-2.6,9.7l-1.7-0.5l0.2-3.6l0.8-2.8L96.6,240.1z"/>
			<path class="st9" d="M99.3,227.3l-9-3.1c-3.2-1.1-4.3-0.8-5.1,1.5c-0.3,0.9-0.5,1.8-0.6,3.5l-0.6-3l2.4,1.1
				c2.4,0.9,2.9,2.4,2.4,3.8c-0.4,1.3-1.3,1.9-2.6,1.8c-2.9-1.2-3.9-4.8-2.2-10c1.6-4.6,4.2-5.8,9-4.1l8.1,2.8
				c0.7,0.2,1.2,0.1,1.3-0.4c0.1-0.4,0-0.7-0.4-1.4l1-0.7c1.7,1.5,2,3.1,1.2,5.3C103.3,226.8,101.6,227.7,99.3,227.3z M91.3,227.6
				c0.1-1.6,0.3-4.4,0.5-6.2l1.5,0.5c-0.2,1.8-0.3,4-0.2,5.2c0.1,1.9,1,3.3,2.7,3.9c1.8,0.6,3,0,3.4-1.2c0.2-0.7,0.2-1.4-0.3-2.8
				l-0.6-1.8l0.7-0.2l1.1,2.1c1.2,2.4,2,3.9,1.1,6.5c-1,2.8-3.3,4.1-6.2,3.1C92.3,235.7,91,233.7,91.3,227.6z"/>
			<path class="st9" d="M106.5,216.8c-1.5-0.8-5.1-2.4-7.2-3.4l-2-0.9c-1.9-0.9-2.7-1.1-4.1-1.7l-1.3,2l-1.4-0.6l0.8-7.9l0.6-0.4
				l4,1.4l5.8,2.6c2.2,1,5.7,2.5,7.3,3.2L106.5,216.8z M102.4,195.6l4,1.8c2.2,1,5.7,2.5,7.3,3.2l-2.6,5.7c-1.5-0.8-5-2.4-7.2-3.4
				l-3.6-1.6c-2.2-1-3.3-0.8-3.9,0.6c-0.6,1.2-0.4,3.3,0.6,5.4l-0.5,1.2l-2.2-1l1.1-2.3l0.4,1.8c-2.4-4-2.7-6.5-1.5-9
				C95.5,194.9,98.4,193.8,102.4,195.6z M108.2,208.7l1.6,0.7l-4.1,9.1l-1.6-0.7l0.8-3.5l1.2-2.6L108.2,208.7z M110.7,201.3l2.2-3.1
				l1.6,0.7l-4.1,9.1l-1.6-0.7l0.7-3.4L110.7,201.3z"/>
			<path class="st9" d="M114.8,176.1c0.7,0.4,1.2,0.8,1.7,1.2l-7.3,12.9l-1.8-1l3.5-6.2c0.9-1.6,0.5-2.3-0.9-3.2
				c-2.2-1.2-3.8-0.8-4.5,0.4c-0.8,1.4,0,3.5,4.8,6.2c4,2.3,7,1.3,8.4-1.2c1-1.8,1-3.4,0.5-5l1.7-0.5c1.8,2.8,1.8,5.9-0.1,9.1
				c-2.7,4.8-7.8,6.5-13.2,3.4c-5.5-3.1-6.1-9.1-3.7-13.3C106.5,174.6,110.8,173.9,114.8,176.1z"/>
			<path class="st9" d="M113,157.1l-0.1-3.5l5,5.1l-1.9,2.5l-5.6-4.4L124,139l5.7,4.2l-1.9,2.5l-6.2-3.5l3.3-0.9L113,157.1z
				 M124.7,157.6c-3.1-2.4-6.3-4.7-9.5-7l4-5.3c3,2.4,6.2,4.8,9.3,7.2l1.1,0.8c3.1,2.4,6.3,4.8,9.5,7l-4,5.3c-3-2.4-6.1-4.8-9.3-7.2
				L124.7,157.6z M135.6,160.8l3.9-4.2l1.6,1.2l-7.9,10.4l-1.6-1.2l2.9-4.8L135.6,160.8z"/>
			<path class="st9" d="M129.4,134.4l-1.9,1.5l-1.2-1.1l4.1-6.9l0.7-0.2l3.8,3.7l5.5,5.1l0.4,0.2l4.3,4c1.7,1.6,4.6,4.2,5.9,5.4
				l-4.3,4.6c-1.2-1.2-4-3.9-5.8-5.5L129.4,134.4z M149.8,129.5l3.2,3c1.8,1.7,4.6,4.2,5.9,5.4l-4.3,4.6c-1.2-1.2-4-3.9-5.8-5.5
				l-2.9-2.7c-1.8-1.7-2.8-1.9-3.8-0.8c-1,1-1.2,3-0.9,5.5l-0.9,1l-2-1.9l1.7-1.8l-0.2,1.8c-1-4.6-0.5-6.9,1.4-8.9
				C143.5,126.6,146.6,126.5,149.8,129.5z M151,143.8l1.3,1.2l-6.8,7.3l-1.3-1.2l1.9-3.1l2-2.1L151,143.8z M155.8,137.5l3.1-2.2
				l1.3,1.2l-6.8,7.3l-1.3-1.2l1.8-3L155.8,137.5z"/>
			<path class="st9" d="M167.9,115.1c0.5,0.6,0.9,1.1,1.2,1.7l-11.1,9.8l-1.3-1.5l5.3-4.7c1.4-1.2,1.3-2,0.1-3.3
				c-1.6-1.9-3.4-2-4.4-1.1c-1.2,1.1-1.1,3.3,2.5,7.4c3.1,3.5,6.2,3.5,8.3,1.6c1.5-1.4,2-2.9,2.1-4.6l1.8,0.1c0.8,3.3-0.3,6.2-3,8.6
				c-4.1,3.7-9.5,3.6-13.6-1c-4.2-4.8-2.8-10.6,0.9-13.8C160.5,110.9,164.9,111.6,167.9,115.1z"/>
			<path class="st9" d="M174.2,114l-1.3-1.8c-1.2-1.7-1.7-2.3-2.7-3.4l-2.1,1.1l-0.9-1.2l4.5-6.5l0.8-0.1l3.1,3.5l3.5,4.7
				c1.4,1.9,3.8,5,4.8,6.3l-5.1,3.7C177.9,119,175.6,115.9,174.2,114z M173.8,108l2.3-1.7l0.2,1.1c-2.2-4.1-1.5-7.6,0.3-8.9
				c1.3-1,2.9-1,4.3,0.3c1.1,1.6,0.9,3.2-0.3,4.1c-0.9,0.7-2,0.8-3.4,0.3l-1.8-0.5l1.6-0.5c-0.5,1.6-0.4,4,0.6,6.2l-2.4,1.4
				L173.8,108z M176.2,120.2l2.5-2.8l3.2-2.4l3.4-1.6l1.1,1.4l-9.1,6.7L176.2,120.2z"/>
			<path class="st9" d="M201.2,92.3c0.4,0.7,0.7,1.2,0.9,1.8l-12.7,7.8l-1.1-1.7l6.1-3.7c1.6-0.9,1.6-1.8,0.7-3.2
				c-1.3-2.1-3-2.6-4.1-1.8c-1.4,0.8-1.7,3.1,1.2,7.7c2.4,3.9,5.5,4.5,7.9,3.1c1.8-1.1,2.5-2.5,2.9-4.2l1.8,0.4
				c0.2,3.3-1.3,6-4.5,7.9c-4.7,2.9-10,1.9-13.2-3.4c-3.3-5.4-0.9-10.9,3.2-13.4C194.6,87,198.9,88.4,201.2,92.3z"/>
			<path class="st9" d="M208.9,99.3l-2-4.2l2.7-1.4l3,4.2l-2.2,0.3l-0.7-1.4c1.9,0.2,3.4,0,4.9-0.8c2-1,2.7-2.2,2-3.5
				c-0.5-1.1-1.5-1.5-4.1-1l-2.1,0.4c-3,0.5-5.4-0.5-6.6-3c-1.6-3.1-0.2-6.8,4.3-9.1c2-1,3.9-1.3,6.1-1.3l1.6,3.8l-2.7,1.4l-3.1-3.7
				l2.3-0.1l0.6,1.2c-1.6-0.2-2.5-0.1-4,0.6c-1.5,0.8-2.2,1.9-1.6,3.2c0.5,0.9,1.3,1.3,4,0.9l1.9-0.3c3.7-0.6,5.9,0.5,7.1,3
				c1.8,3.6-0.1,7.1-4.9,9.5C213.3,99,211.2,99.5,208.9,99.3z"/>
			<path class="st9" d="M237.8,75.9c0.3,0.8,0.5,1.3,0.6,2l-13.9,5.4l-0.7-1.9l6.6-2.6c1.7-0.7,1.9-1.5,1.3-3.1
				c-0.9-2.3-2.5-3-3.8-2.5c-1.5,0.6-2.2,2.7-0.2,7.8c1.7,4.3,4.6,5.4,7.2,4.4c1.9-0.7,2.9-2.1,3.6-3.6l1.7,0.7
				c-0.4,3.3-2.4,5.7-5.8,7c-5.1,2-10.1,0.1-12.4-5.6c-2.3-5.9,1-10.9,5.6-12.7C232.2,69.5,236.1,71.6,237.8,75.9z"/>
			<path class="st9" d="M247.4,60.5l-0.5-2l11.9-3l0.5,2l-5.3,1.9l-1.1,0.3L247.4,60.5z M252.6,69.2c-0.9-3.8-1.9-7.6-3-11.4
				l6.4-1.6c0.8,3.8,1.8,7.6,2.7,11.5l0.3,1.3c1,3.8,1.9,7.7,3,11.4l-6.4,1.6c-0.8-3.8-1.8-7.6-2.7-11.5L252.6,69.2z M258.8,78.6
				l5.6-0.8l0.5,2l-11.9,3l-0.5-2l5.2-1.9L258.8,78.6z"/>
			<path class="st9" d="M269.5,78.7c-0.2-1.7-0.7-5.6-1.1-7.9l-0.3-2.2c-0.3-2.1-0.5-2.8-0.8-4.3l-2.4,0l-0.2-1.5l7-3.6l0.7,0.3
				l1,4.1l1,6.3c0.4,2.3,1,6.2,1.3,7.9L269.5,78.7z M277.2,75.7l0.3,1.8l-9.9,1.5l-0.3-1.8l3.4-1.3l2.9-0.4L277.2,75.7z M285.1,63.8
				l0.7,4.4c0.4,2.4,1,6.2,1.3,7.9l-6.2,0.9c-0.2-1.7-0.7-5.5-1.1-7.9l-0.6-3.9c-0.4-2.4-1.1-3.2-2.6-3c-1.3,0.2-3,1.5-4.2,3.5
				l-1.3,0.2l-0.4-2.4l2.5-0.4l-1.3,1.3c2.1-4.2,4-5.7,6.7-6.2C281.9,57.7,284.4,59.4,285.1,63.8z M284.8,73.8l3.8,0.2l0.3,1.8
				l-9.9,1.5l-0.3-1.8l3.3-1.3L284.8,73.8z"/>
			<path class="st9" d="M300.9,72.6c0.7,0,1.3-0.4,2-1l1,0.9c-0.9,2-2.6,3.2-5.4,3.4c-3.4,0.2-5.5-1.2-5.8-4.9
				c-0.1-1.3-0.1-2.3-0.2-3.8l-0.4-7.2l-2.5,0.1l-0.1-2.3l4.5-0.8l-2.1,1.7l2-6.8l3.9-0.2l0.3,6.8l0.7,11.7
				C298.9,71.9,299.7,72.7,300.9,72.6z M302,56.7l0.1,2.6l-7,0.4l-0.1-2.6L302,56.7z"/>
			<path class="st9" d="M323.3,64.4c0,0.8-0.1,1.4-0.3,2l-14.9-0.3l0-2l7.1,0.2c1.8,0,2.3-0.6,2.4-2.3c0.1-2.5-1.1-3.8-2.5-3.8
				c-1.6,0-3.1,1.7-3.2,7.1c-0.1,4.6,2.1,6.8,5,6.8c2,0.1,3.5-0.8,4.6-1.9l1.3,1.3c-1.6,2.9-4.4,4.3-8.1,4.3
				c-5.5-0.1-9.4-3.8-9.2-10c0.1-6.3,5.1-9.7,10-9.5C320.6,56.3,323.4,59.8,323.3,64.4z"/>
			<path class="st9" d="M325.8,73.8l3.7-0.3l4,0.5l3.5,1.2l-0.2,1.8l-11.2-1.3L325.8,73.8z M328.6,67.8l0.2-2.2
				c0.2-2.1,0.3-2.8,0.4-4.4l-2.3-0.6l0.2-1.5l7.7-1.7l0.6,0.5l-0.2,4.7l-0.7,5.9c-0.3,2.3-0.7,6.2-0.8,7.9l-6.2-0.7
				C327.9,74.1,328.4,70.2,328.6,67.8z M332.4,63.2l2.8,0.3l-0.6,1c1.2-4.5,4.1-6.5,6.3-6.3c1.6,0.2,2.9,1.2,3,3.2
				c-0.3,2-1.5,2.9-3,2.8c-1.1-0.1-2-0.8-2.7-2.1l-0.9-1.6l1.5,0.7c-1.5,0.8-3.1,2.7-3.8,4.9l-2.7-0.6L332.4,63.2z"/>
			<path class="st9" d="M353.8,78l-0.4,1.7l-9.8-2.1l0.4-1.7l3.6,0l2.8,0.6L353.8,78z M345.6,78c0.4-1.7,1.3-5.5,1.8-7.8l0.5-2.2
				c0.5-2,0.6-2.8,0.8-4.3l-2.2-0.8l0.3-1.5l7.9-0.9l0.5,0.5l-0.6,4.2l-1.4,6.2c-0.5,2.3-1.3,6.1-1.6,7.8L345.6,78z M365.4,69.6
				l-1,4.3c-0.5,2.4-1.3,6.1-1.6,7.8l-6.1-1.3c0.4-1.7,1.3-5.4,1.8-7.8l0.9-3.9c0.5-2.4,0.1-3.4-1.4-3.7c-1.3-0.3-3.3,0.3-5.2,1.7
				l-1.3-0.3l0.5-2.4l2.5,0.6l-1.6,0.7c3.4-3.2,5.8-3.9,8.5-3.3C364.7,62.8,366.4,65.3,365.4,69.6z M361.6,78.9l3.5,1.5l-0.4,1.7
				l-9.8-2.1l0.4-1.7l3.5,0L361.6,78.9z"/>
			<path class="st9" d="M377.2,75.2c1.6,0.1,4.4,0.2,6.2,0.4l-0.5,1.5c-1.8-0.1-4-0.3-5.2-0.1c-1.9,0.2-3.3,1-3.9,2.7
				c-0.6,1.8,0.1,3,1.3,3.4c0.7,0.2,1.4,0.1,2.8-0.3l1.8-0.6l0.2,0.7l-2.1,1.1c-2.4,1.3-3.9,2-6.5,1.1c-2.8-0.9-4.2-3.2-3.2-6.2
				C369.1,76.3,371.1,74.9,377.2,75.2z M377.6,83.2l3-9c1.1-3.2,0.8-4.3-1.5-5.1c-0.9-0.3-1.8-0.5-3.5-0.6l3-0.6l-1.1,2.4
				c-0.9,2.4-2.4,2.9-3.8,2.5c-1.3-0.4-1.9-1.3-1.8-2.6c1.2-2.9,4.8-4,10-2.3c4.6,1.5,5.8,4.1,4.2,8.9l-2.7,8.1
				c-0.2,0.7,0,1.2,0.5,1.3c0.4,0.1,0.7,0,1.4-0.4l0.7,1c-1.5,1.7-3.1,2-5.2,1.3C378.1,87.2,377.2,85.5,377.6,83.2z"/>
			<path class="st9" d="M396.4,91.2c0.6,0.3,1.3,0.3,2.2,0l0.5,1.2c-1.7,1.4-3.8,1.7-6.3,0.6c-3.2-1.4-4.4-3.6-3-7
				c0.5-1.2,1-2.1,1.5-3.5l2.9-6.7l-2.2-1l0.9-2.1l4.4,1.2l-2.6,0.6l4.8-5.1L403,71l-2.8,6.3L395.6,88
				C394.9,89.7,395.4,90.7,396.4,91.2z M404.5,77.4l-1,2.4l-6.4-2.8l1-2.4L404.5,77.4z"/>
			<path class="st9" d="M409.3,98.3l-0.8,1.6l-9-4.5l0.8-1.6l3.5,0.9l2.6,1.3L409.3,98.3z M401.3,96.3c0.8-1.5,2.6-5,3.7-7.1
				l0.8-1.6c0.9-1.9,1.4-2.9,2.1-4.3l-1.9-1.4l0.7-1.3l8.2,1.3l0.4,0.7l-2.6,4.9l-2.3,4.5c-1.1,2.1-2.8,5.6-3.5,7.2L401.3,96.3z
				 M412.3,74.1c0.8-1.6,2.6-2.1,4.2-1.2c1.6,0.8,2.3,2.6,1.5,4.2c-0.8,1.6-2.6,2.1-4.2,1.2C412.2,77.4,411.5,75.7,412.3,74.1z"/>
			<path class="st9" d="M415.6,93.1c3-5,8.6-6.1,13.3-3.2c4.6,2.8,6.3,8.2,3.2,13.3c-3.1,5.1-8.3,6.4-13.4,3.4
				C413.6,103.4,412.5,98.1,415.6,93.1z M426.5,99.8c2.8-4.6,3.1-7.2,1.3-8.3c-1.8-1.1-4,0.4-6.8,5c-2.8,4.6-3.1,7.2-1.3,8.3
				C421.5,105.9,423.7,104.5,426.5,99.8z"/>
			<path class="st9" d="M438.4,117.1l-1.1,1.4l-8-6.1l1.1-1.4l3.3,1.5l2.3,1.8L438.4,117.1z M430.9,113.6c1.1-1.3,3.5-4.4,4.9-6.3
				l1.3-1.8c1.3-1.7,1.7-2.3,2.6-3.6l-1.6-1.7l0.9-1.2l7.5,2.5l0.3,0.7l-2.3,3.6l-3.8,5c-1.4,1.9-3.8,5-4.8,6.4L430.9,113.6z
				 M445.1,121.2l2.5,2.9l-1.1,1.4l-8-6.1l1.1-1.4l3.2,1.5L445.1,121.2z M452.5,114.4l-2.7,3.5c-1.5,1.9-3.8,5-4.8,6.4l-5-3.8
				c1.1-1.3,3.5-4.3,4.9-6.3l2.4-3.2c1.5-1.9,1.5-3,0.3-3.9c-1.1-0.8-3.1-1.1-5.4-0.6l-1-0.8l1.5-1.9l2,1.6l-1.8,0
				c4.5-1.4,6.9-1.1,9.1,0.5C454.7,107.9,455.1,111,452.5,114.4z"/>
			<path class="st9" d="M460.9,124.4c1.5,0.7,3.9,2.1,5.5,3l-1.1,1.2c-1.6-0.9-3.5-1.9-4.7-2.3c-1.8-0.6-3.5-0.5-4.7,0.8
				c-1.3,1.4-1.2,2.7-0.2,3.6c0.5,0.5,1.2,0.7,2.7,0.9l1.9,0.2l-0.1,0.7l-2.4,0.2c-2.7,0.2-4.3,0.2-6.4-1.6c-2.1-2-2.5-4.7-0.3-6.9
				C453,122,455.4,121.6,460.9,124.4z M457.9,131.8l6.5-7c2.3-2.5,2.5-3.6,0.7-5.3c-0.7-0.6-1.5-1.2-3-2l2.9,0.7l-2,1.7
				c-1.8,1.8-3.4,1.7-4.5,0.7c-1-0.9-1.2-2-0.6-3.1c2.3-2.2,6-1.7,10,2.1c3.6,3.3,3.6,6.1,0.1,9.9l-5.8,6.2c-0.5,0.6-0.5,1-0.1,1.4
				c0.3,0.3,0.7,0.3,1.4,0.2l0.3,1.2c-2.1,0.9-3.6,0.6-5.3-1C456.7,135.7,456.6,133.7,457.9,131.8z"/>
			<path class="st9" d="M471.5,147.8l-1.3,1.2l-7.1-7.6l1.3-1.2l3,2.1l2,2.1L471.5,147.8z M488.7,128.3l0.1,0.7l-4,3.5l-10.2,9.5
				c-2,1.8-3.9,3.6-5.8,5.5l-4.3-4.6c2-1.8,4-3.5,5.9-5.3l11.7-10.8l-1.3-2l1.2-1.1L488.7,128.3z"/>
			<path class="st9" d="M489.4,164.8c1.6-1.2,1.8-2.5,1.2-5l-0.4-1.7c-1-4.8-0.7-8.2,2.6-10.7c3.7-2.7,8.1-1.4,11.5,3.2
				c1.6,2.2,2.6,4.7,2.7,6.9l-4.5,2.9l-2.1-2.8l4.1-4.1l0.9,3.1l-1.5,1.1c0-2.5-0.2-4.1-1.4-5.7c-1.3-1.8-3.4-2.3-5.1-1.1
				c-1.6,1.2-1.8,2.8-1.2,5.2l0.4,1.9c1.1,5.2,0.6,8.1-2.5,10.3c-3.6,2.7-8.2,1.8-12.1-3.4c-1.7-2.3-3.1-5.3-3.3-7.8l4.7-3.2
				l2.1,2.9l-4.4,4.4l-1-2.9l1.5-1.1c0.4,2.7,0.8,4.4,2.2,6.3C485.6,165.8,487.7,166,489.4,164.8z"/>
			<path class="st9" d="M501.8,175c-3.7,2.3-4.7,5.3-3,8.1c1,1.6,2.4,2.3,4,2.6l-0.3,1.7c-3.4,0.4-6.1-1.2-8-4.3
				c-2.7-4.4-2.1-9.8,3.3-13.1c5.3-3.2,10.8-1.2,13.7,3.6c2.1,3.4,1.4,7.1-1,8.9c-1.4,0.4-2.3,0-3-1.1c-0.8-1.3-0.6-2.8,1.5-4.4
				l2.1-1.7l0.1,3.2c-0.1-1.3-0.4-2.3-1.1-3.3C509.2,173.3,506.2,172.3,501.8,175z"/>
			<path class="st9" d="M506.5,200l-1.6,0.8l-4.4-9l1.6-0.8l2.2,2.8l1.3,2.6L506.5,200z M522.9,183.1l-0.7-2.3l1.4-0.7l5,6.3
				l-0.1,0.7l-4.8,2.2l-6.7,3.3l-0.4,0.3l-5.3,2.6c-2.1,1-5.6,2.8-7.1,3.6l-2.8-5.6c1.6-0.7,5.1-2.4,7.2-3.4L522.9,183.1z
				 M510.7,206.7l1,3.7l-1.6,0.8l-4.4-9l1.6-0.8l2.2,2.8L510.7,206.7z M520.4,203.9l-4,2c-2.2,1.1-5.6,2.8-7.1,3.6l-2.8-5.6
				c1.6-0.7,5-2.4,7.2-3.4l3.6-1.8c2.2-1.1,2.7-1.9,2.1-3.3c-0.6-1.3-2.4-2.2-4.8-2.8l-0.6-1.2l2.4-1.2l1.1,2.2l-1.6-0.8
				c4.6,0.7,6.7,2,7.9,4.5C525.2,199.1,524.3,202,520.4,203.9z"/>
			<path class="st9" d="M519.6,210.1c5.5-2.1,10.5,0.5,12.5,5.6c1.9,5.1-0.1,10.4-5.6,12.5s-10.5,0-12.6-5.5
				C511.7,217,514.2,212.1,519.6,210.1z M524.1,222.1c5-1.9,6.9-3.8,6.1-5.8c-0.8-2-3.4-2.2-8.4-0.2c-5.1,1.9-6.9,3.8-6.1,5.8
				C516.5,223.9,519,224.1,524.1,222.1z"/>
			<path class="st9" d="M527.6,231.4c5.6-1.6,10.5,1.4,11.9,6.7c1.5,5.2-1,10.3-6.7,11.9c-5.7,1.6-10.5-1-12.1-6.6
				C519.1,237.7,521.9,233,527.6,231.4z M531,243.9c5.2-1.5,7.2-3.1,6.6-5.2c-0.6-2.1-3.2-2.4-8.4-1c-5.2,1.5-7.2,3.1-6.6,5.2
				C523.2,244.9,525.7,245.3,531,243.9z"/>
			<path class="st9" d="M528.2,265l-1.7,0.4l-2.1-10.2l1.7-0.4l1.5,3.4l0.6,2.8L528.2,265z M552.9,257.2l-0.2,0.7l-5.2,0.9
				l-13.6,2.8c-2.6,0.5-5.2,1.1-7.8,1.7l-1.3-6.2c2.6-0.5,5.2-1,7.8-1.5l15.6-3.2l-0.1-2.4l1.6-0.3L552.9,257.2z"/>
		</g>
	</g>
	<path class="st9" d="M91.1,273.4c0.3-1.9,0.6-3.7,0.9-5.5"/>
</g>
<g>
	<circle class="st10" cx="279" cy="236.7" r="16.4"/>
	<ellipse class="st11" cx="279" cy="236" rx="23.5" ry="20.8"/>
	<circle class="st12" cx="279" cy="236.7" r="8.9"/>
</g>
<g class="st13">
	<circle class="st10" cx="279" cy="236" r="29.8"/>
	<ellipse class="st11" cx="279" cy="234.6" rx="42.6" ry="37.7"/>
	<circle class="st12" cx="279" cy="236" r="16.1"/>
</g>
</svg>
